REM DIRINDEX 1\2\6,1\2\7,1\2\8,1\2\9,1\3\10,1\3\11,1\4\12,1\4\13,1\4\14,1\5\15,1\5\16,1\5\17
REM DIRNAME cjc029,folder01,folder02,folder03,folder04,folder05,folder06,folder07,folder08,folder09,folder10,folder11,folder12,folder13,folder14,folder15,folder16
TITLE ""
FILE "1400_2_sec13_1233_1248.mp3" MP3
  TRACK 01 AUDIO
    TITLE "0:"
    INDEX 01 00:00:00
  TRACK 02 AUDIO
    TITLE "13:cjc029_4083"
    INDEX 01 00:00:17
  TRACK 03 AUDIO
    TITLE "0:"
    INDEX 01 00:01:26
  TRACK 04 AUDIO
    TITLE "14:cjc029_4084"
    INDEX 01 00:01:30
  TRACK 05 AUDIO
    TITLE "0:"
    INDEX 01 00:03:59
  TRACK 06 AUDIO
    TITLE "13:cjc029_4085"
    INDEX 01 00:04:40
  TRACK 07 AUDIO
    TITLE "0:"
    INDEX 01 00:05:57
  TRACK 08 AUDIO
    TITLE "14:cjc029_4086"
    INDEX 01 00:05:59
  TRACK 09 AUDIO
    TITLE "0:"
    INDEX 01 00:10:19
  TRACK 10 AUDIO
    TITLE "13:cjc029_4087"
    INDEX 01 00:11:01
  TRACK 11 AUDIO
    TITLE "0:"
    INDEX 01 00:12:22
  TRACK 12 AUDIO
    TITLE "14:cjc029_4088"
    INDEX 01 00:12:24
  TRACK 13 AUDIO
    TITLE "0:"
    INDEX 01 00:13:37
  TRACK 14 AUDIO
    TITLE "13:cjc029_4089"
    INDEX 01 00:14:23
  TRACK 15 AUDIO
    TITLE "0:"
    INDEX 01 00:15:25
  TRACK 16 AUDIO
    TITLE "14:cjc029_4090"
    INDEX 01 00:15:30
  TRACK 17 AUDIO
    TITLE "0:"
    INDEX 01 00:18:50
  TRACK 18 AUDIO
    TITLE "13:cjc029_4091"
    INDEX 01 00:19:32
  TRACK 19 AUDIO
    TITLE "0:"
    INDEX 01 00:20:37
  TRACK 20 AUDIO
    TITLE "14:cjc029_4092"
    INDEX 01 00:20:41
  TRACK 21 AUDIO
    TITLE "0:"
    INDEX 01 00:24:47
  TRACK 22 AUDIO
    TITLE "13:cjc029_4093"
    INDEX 01 00:25:33
  TRACK 23 AUDIO
    TITLE "0:"
    INDEX 01 00:26:32
  TRACK 24 AUDIO
    TITLE "14:cjc029_4094"
    INDEX 01 00:26:36
  TRACK 25 AUDIO
    TITLE "0:"
    INDEX 01 00:28:55
  TRACK 26 AUDIO
    TITLE "13:cjc029_4095"
    INDEX 01 00:29:33
  TRACK 27 AUDIO
    TITLE "0:"
    INDEX 01 00:30:34
  TRACK 28 AUDIO
    TITLE "14:cjc029_4096"
    INDEX 01 00:30:38
  TRACK 29 AUDIO
    TITLE "0:"
    INDEX 01 00:31:24
  TRACK 30 AUDIO
    TITLE "13:cjc029_4097"
    INDEX 01 00:32:11
  TRACK 31 AUDIO
    TITLE "0:"
    INDEX 01 00:33:15
  TRACK 32 AUDIO
    TITLE "14:cjc029_4098"
    INDEX 01 00:33:19
  TRACK 33 AUDIO
    TITLE "0:"
    INDEX 01 00:36:72
  TRACK 34 AUDIO
    TITLE "13:cjc029_4099"
    INDEX 01 00:37:54
  TRACK 35 AUDIO
    TITLE "0:"
    INDEX 01 00:38:53
  TRACK 36 AUDIO
    TITLE "14:cjc029_4100"
    INDEX 01 00:38:57
  TRACK 37 AUDIO
    TITLE "0:"
    INDEX 01 00:41:71
  TRACK 38 AUDIO
    TITLE "13:cjc029_4101"
    INDEX 01 00:42:49
  TRACK 39 AUDIO
    TITLE "0:"
    INDEX 01 00:43:68
  TRACK 40 AUDIO
    TITLE "14:cjc029_4102"
    INDEX 01 00:43:72
  TRACK 41 AUDIO
    TITLE "0:"
    INDEX 01 00:45:69
  TRACK 42 AUDIO
    TITLE "12:cjc029_4103"
    INDEX 01 00:47:42
  TRACK 43 AUDIO
    TITLE "0:"
    INDEX 01 00:48:71
  TRACK 44 AUDIO
    TITLE "13:cjc029_4104"
    INDEX 01 00:49:74
  TRACK 45 AUDIO
    TITLE "0:"
    INDEX 01 00:51:11
  TRACK 46 AUDIO
    TITLE "14:cjc029_4105"
    INDEX 01 00:51:18
  TRACK 47 AUDIO
    TITLE "0:"
    INDEX 01 00:53:53
  TRACK 48 AUDIO
    TITLE "13:cjc029_4106"
    INDEX 01 00:54:36
  TRACK 49 AUDIO
    TITLE "0:"
    INDEX 01 00:55:44
  TRACK 50 AUDIO
    TITLE "14:cjc029_4107"
    INDEX 01 00:55:48
  TRACK 51 AUDIO
    TITLE "0:"
    INDEX 01 00:56:53
  TRACK 52 AUDIO
    TITLE "13:cjc029_4108"
    INDEX 01 00:57:35
  TRACK 53 AUDIO
    TITLE "0:"
    INDEX 01 00:58:46
  TRACK 54 AUDIO
    TITLE "14:cjc029_4109"
    INDEX 01 00:58:52
  TRACK 55 AUDIO
    TITLE "0:"
    INDEX 01 01:00:66
  TRACK 56 AUDIO
    TITLE "13:cjc029_4110"
    INDEX 01 01:01:48
  TRACK 57 AUDIO
    TITLE "0:"
    INDEX 01 01:02:61
  TRACK 58 AUDIO
    TITLE "14:cjc029_4111"
    INDEX 01 01:02:65
  TRACK 59 AUDIO
    TITLE "0:"
    INDEX 01 01:06:26
  TRACK 60 AUDIO
    TITLE "13:cjc029_4112"
    INDEX 01 01:07:06
  TRACK 61 AUDIO
    TITLE "0:"
    INDEX 01 01:08:31
  TRACK 62 AUDIO
    TITLE "14:cjc029_4113"
    INDEX 01 01:08:33
  TRACK 63 AUDIO
    TITLE "0:"
    INDEX 01 01:09:50
  TRACK 64 AUDIO
    TITLE "13:cjc029_4114"
    INDEX 01 01:10:31
  TRACK 65 AUDIO
    TITLE "0:"
    INDEX 01 01:11:43
  TRACK 66 AUDIO
    TITLE "14:cjc029_4115"
    INDEX 01 01:11:47
  TRACK 67 AUDIO
    TITLE "0:"
    INDEX 01 01:12:68
